<svg width="56" height="56" viewBox="0 0 56 56" fill="none" xmlns="http://www.w3.org/2000/svg">
<path d="M39.3567 28.8117L15.0294 28.8117" stroke="black" stroke-width="3"/>
<path d="M33.5136 24.3004C32.1184 22.774 30.7582 20.9324 29.87 18.86L32.6278 17.6783C33.7186 20.2233 35.7626 22.4822 37.621 24.1451C37.6804 24.1983 37.7419 24.2486 37.8007 24.3004L33.5136 24.3004ZM29.87 37.1402C31.2119 34.0093 33.6278 31.4022 35.621 29.6188C36.3331 28.9816 37.0067 28.4387 37.579 28.0006C37.3055 27.7912 37.0099 27.5566 36.6972 27.3004L40.9638 27.3004L40.9638 29.2721L40.955 29.2779C40.9457 29.2838 40.9296 29.294 40.9091 29.3072C40.8675 29.3341 40.8031 29.3763 40.7196 29.4322C40.5516 29.5447 40.304 29.7141 39.9979 29.9361C39.384 30.3816 38.5381 31.0345 37.621 31.8551C35.7626 33.518 33.7186 35.7769 32.6278 38.3219L29.87 37.1402Z" fill="black"/>
</svg>
