<svg width="80" height="80" viewBox="0 0 80 80" fill="none" xmlns="http://www.w3.org/2000/svg">
  <!-- 深色背景 -->
  <rect width="80" height="80" fill="#0B0B0E"/>
  
  <!-- 红色方块（logo核心元素，居中放大）-->
  <rect x="20" y="20" width="40" height="40" fill="#EB1000" rx="2"/>
  
  <!-- 白色 "798" 使用路径绘制，确保兼容性 -->
  <g fill="white">
    <!-- 数字 7 -->
    <rect x="26" y="28" width="6" height="2"/>
    <rect x="26" y="28" width="8" height="2"/>
    <rect x="32" y="30" width="2" height="8"/>
    <rect x="32" y="36" width="2" height="4"/>
    
    <!-- 数字 9 -->
    <rect x="38" y="28" width="6" height="2"/>
    <rect x="38" y="28" width="8" height="2"/>
    <rect x="38" y="30" width="2" height="6"/>
    <rect x="44" y="30" width="2" height="10"/>
    <rect x="38" y="36" width="8" height="2"/>
    
    <!-- 数字 8 -->
    <rect x="48" y="28" width="6" height="2"/>
    <rect x="48" y="28" width="8" height="2"/>
    <rect x="48" y="30" width="2" height="6"/>
    <rect x="54" y="30" width="2" height="6"/>
    <rect x="48" y="36" width="8" height="2"/>
    <rect x="48" y="38" width="2" height="6"/>
    <rect x="54" y="38" width="2" height="6"/>
    <rect x="48" y="44" width="8" height="2"/>
  </g>
</svg>
