<svg width="421" height="80" viewBox="0 0 421 80" fill="none" xmlns="http://www.w3.org/2000/svg">
<path d="M158.228 5.65137H169.53V79.1143H152.578V16.9531H129.973V22.6035H113.02V5.65137H124.322V0H158.228V5.65137Z" fill="black"/>
<path d="M324.933 70.6372H336.235V67.812H344.711V76.2886H339.061V79.1138H322.108V76.2886H316.456V39.5571H324.933V70.6372Z" fill="black"/>
<path d="M226.04 5.65137H237.342V73.4629H226.04V79.1143H192.134V73.4629H180.832V56.5098H197.785V62.1611H220.389V48.0332H192.134V43.5127H180.832V5.65137H192.134V0H226.04V5.65137ZM197.785 31.0801H220.389V16.9531H197.785V31.0801Z" fill="black"/>
<path d="M293.852 5.65137H305.154V36.7314H293.852V42.3828H305.154V73.4629H293.852V79.1143H259.946V73.4629H248.644V42.3828H259.946V36.7314H248.644V5.65137H259.946V0H293.852V5.65137ZM265.597 62.1611H288.201V48.0332H265.597V62.1611ZM265.597 31.0801H288.201V16.9531H265.597V31.0801Z" fill="black"/>
<path d="M401.221 55.0972H415.349V60.7485H421V76.2886H415.349V79.1138H398.396V76.2886H392.745V39.5571H401.221V55.0972ZM401.221 70.6372H412.523V63.5737H401.221V70.6372Z" fill="black"/>
<path d="M101.718 79.1143H84.7651V22.6035H101.718V79.1143Z" fill="black"/>
<rect x="84.7651" width="16.953" height="16.953" fill="#EB1000"/>
<path d="M45.208 39.5571H16.9531V62.1606H45.208V39.5571ZM62.1611 62.1606H73.4629V79.1138H56.5098V67.812H48.0332V79.1138H14.1279V67.812H0V33.9058H14.1279V22.604H48.0332V33.9058H62.1611V62.1606Z" fill="black"/>
<path d="M372.967 59.3357H358.839V70.6375H372.967V59.3357ZM381.443 70.6375H387.094V79.114H378.617V73.4636H374.379V79.114H357.426V73.4636H350.362V56.5105H357.426V50.8591H374.379V56.5105H381.443V70.6375Z" fill="black"/>
</svg>
